<svg width="1em" height="1em" viewBox="0 0 30 30" fill="none" xmlns="http://www.w3.org/2000/svg"><path d="M10 9v-.857c0-1.364.527-2.672 1.464-3.637A4.93 4.93 0 0115 3a4.93 4.93 0 013.535 1.506A5.218 5.218 0 0120 8.143V9M23.26 9.937h0a1.344 1.344 0 011.336 1.204h0l1.579 15s0 0 0 0a1.345 1.345 0 01-1.337 1.484h0H5.463h0a1.345 1.345 0 01-1.337-1.484s0 0 0 0l1.58-15a1.344 1.344 0 011.336-1.204h16.217z" stroke="currentColor" stroke-width="2"></path><path fill-rule="evenodd" clip-rule="evenodd" d="M11.4 14.562a3.75 3.75 0 007.5 0v-.937a.937.937 0 111.875 0v.937a5.625 5.625 0 11-11.25 0v-.937a.937.937 0 111.875 0v.937z" fill="currentColor"></path></svg>