<svg width="1em" height="1em" viewBox="0 0 19 20" fill="none" xmlns="http://www.w3.org/2000/svg"><path d="M1.791.619A1.14 1.14 0 00.996.94c-.211.206-.33.485-.33.777 0 .29.119.57.33.776.21.206.497.322.795.322h1.373l.343 1.341.011.047 1.528 5.962-1.005.98c-1.417 1.383-.414 3.748 1.59 3.748h9.66c.299 0 .585-.116.796-.322.211-.205.33-.485.33-.776 0-.291-.119-.57-.33-.776a1.139 1.139 0 00-.796-.322h-9.66l1.126-1.098h7.41c.208 0 .413-.057.59-.164.178-.107.322-.26.415-.443l3.375-6.589a1.077 1.077 0 00-.049-1.067c-.1-.16-.241-.291-.409-.382a1.147 1.147 0 00-.547-.14H5.482l-.35-1.364a1.096 1.096 0 00-.399-.6A1.143 1.143 0 004.041.62h-2.25zm14.625 17.02c0 .436-.177.855-.494 1.164a1.709 1.709 0 01-1.193.482c-.448 0-.877-.173-1.193-.482a1.627 1.627 0 01-.495-1.165c0-.437.178-.856.495-1.165a1.709 1.709 0 011.193-.482c.448 0 .877.174 1.193.483.317.308.494.727.494 1.164zM5.73 19.284c.447 0 .876-.173 1.193-.482.316-.31.494-.728.494-1.165 0-.437-.178-.856-.494-1.165a1.709 1.709 0 00-1.193-.482c-.448 0-.877.174-1.194.483a1.627 1.627 0 00-.494 1.164c0 .437.178.856.494 1.165.317.309.746.482 1.194.482z" fill="currentColor"></path></svg>